# xmcd
#
# Track frame offsets:
#	150
#	12714
#	29297
#	43820
#	60732
#	75074
#	99798
#	113408
#	139525
#	161822
#	175919
#	191048
#	221269
#	231527
#	245637
#	265508
#	279172
#	297115
#
# Disc length: 4122 seconds
#
# Revision: 1
# Processed by: cddbd v1.5.2PL0 Copyright (c) Steve Scherf et al.
# Submitted via: audiograbber 1.83.01
#
DISCID=ef101812
DTITLE=Various Artist - Supradyn Vital 50+ Blues Compilation
DYEAR=2006
DGENRE=Blues
TTITLE0=Canned Heat - Let's Work Together
TTITLE1=Dr Feelgood - Route 66
TTITLE2=Lou Rawls and Ray Charles - That's Where It's At
TTITLE3=Dinah Washington - The Blues Ain't Nothing But A Woman Cryin' for Her M
TTITLE3=an
TTITLE4=Freddie King - Dust My Broom
TTITLE5=Ten Years After - I Woke Up This Morning
TTITLE6=Nina Simone - Gin House Blues
TTITLE7=Dr Feelgood - Shotgun Blues
TTITLE8=George Thorogood and The Destroyers - Bad to the Bone
TTITLE9=Jimmy Rodgers - That's All Right
TTITLE10=Muddy Waters - Hoochie Coochie Man (live)
TTITLE11=Lou Donaldson - Blues Walk
TTITLE12=Fats Domino - Blue Monday
TTITLE13=Louis Armstrong and Duke Ellington - I'm Just Lucky So and So
TTITLE14=John Hammond - The First Time I Met The Blues
TTITLE15=T-Bone Walker - Call It Stormy Monday
TTITLE16=Memphis Slim - How Long
TTITLE17=Smiley Lewis - I Hear You Knocking
EXTD=A complimentary CD handed out free to purchasers of Supradyn vitamins.
EXTT0=
EXTT1=
EXTT2=
EXTT3=
EXTT4=
EXTT5=
EXTT6=
EXTT7=
EXTT8=
EXTT9=
EXTT10=
EXTT11=
EXTT12=
EXTT13=
EXTT14=
EXTT15=
EXTT16=
EXTT17=
PLAYORDER=
